{"glyphs":{"\r":{"ha":361,"x_min":0,"x_max":0,"o":""}," ":{"ha":361,"x_min":0,"x_max":0,"o":""},"A":{"ha":911,"x_min":3,"x_max":908,"o":"m 790 82 q 838 24 806 46 q 908 1 869 1 l 908 0 l 586 0 l 586 1 q 623 10 607 1 q 649 35 639 19 q 663 69 660 50 q 658 107 665 88 l 611 221 l 610 228 l 190 228 l 133 111 q 132 48 121 79 q 174 1 143 17 l 174 0 l 3 0 l 3 1 q 73 56 44 19 q 119 135 101 92 l 151 211 l 224 381 l 389 771 l 349 893 l 357 897 l 453 943 l 778 115 l 790 82 m 603 249 l 600 256 l 579 308 l 404 747 l 243 368 l 192 249 l 603 249 z "},"B":{"ha":701,"x_min":3,"x_max":675,"o":"m 347 519 q 460 512 401 524 q 566 471 518 500 q 644 394 614 442 q 675 278 675 346 q 589 72 675 143 q 322 0 503 0 l 144 0 l 3 0 l 3 1 q 57 29 36 6 l 63 35 q 85 96 85 61 l 85 856 q 59 911 82 888 q 3 940 36 935 l 3 943 l 31 943 l 86 943 l 188 943 l 358 943 q 453 930 406 943 q 540 891 501 917 q 603 826 579 865 q 628 738 628 788 q 601 641 628 678 q 535 582 575 604 q 444 547 494 560 q 347 519 394 533 m 190 450 q 240 495 207 478 q 310 528 272 513 q 389 559 349 543 q 462 598 429 575 q 515 655 494 621 q 536 742 536 689 q 478 876 536 828 q 332 925 421 925 l 190 925 l 190 450 m 328 17 q 440 38 392 17 q 519 95 488 60 q 567 176 551 131 q 582 268 582 221 q 557 381 582 333 q 492 458 532 428 q 406 499 453 488 q 315 504 358 511 q 238 471 272 497 q 190 399 203 444 l 190 17 l 328 17 z "},"C":{"ha":950,"x_min":28,"x_max":922,"o":"m 908 199 l 922 186 q 821 86 881 131 q 692 17 769 49 q 510 -14 614 -14 q 322 24 410 -14 q 169 128 235 63 q 65 281 103 193 q 28 468 28 368 q 65 656 28 568 q 169 810 103 744 q 322 913 235 875 q 510 951 410 951 q 674 942 607 951 q 782 921 742 932 q 858 890 829 907 l 842 789 q 775 863 819 829 q 674 914 738 890 q 510 938 610 938 q 349 899 419 938 q 230 799 278 861 q 158 656 182 736 q 134 494 133 576 q 162 331 135 411 q 244 189 189 251 q 385 88 300 126 q 586 50 469 50 q 726 73 665 50 q 826 124 786 96 q 908 199 874 157 z "},"D":{"ha":853,"x_min":3,"x_max":825,"o":"m 358 943 q 563 903 475 943 q 708 796 650 863 q 796 644 767 729 q 825 472 825 560 q 796 299 825 383 q 708 147 767 214 q 563 40 650 81 q 358 0 475 0 l 144 0 l 3 0 l 3 1 q 57 28 32 6 l 64 36 q 85 96 85 61 l 85 856 q 58 912 82 889 q 3 940 35 935 l 3 943 l 31 943 l 86 943 l 188 943 l 358 943 m 332 17 q 499 56 428 17 q 618 158 571 94 q 689 304 665 222 q 713 471 713 386 q 689 638 713 556 q 618 783 665 719 q 499 886 571 847 q 332 925 428 925 l 190 925 l 190 17 l 332 17 z "},"E":{"ha":721,"x_min":3,"x_max":690,"o":"m 660 0 l 146 0 l 3 0 l 3 1 q 58 29 35 6 l 64 35 q 80 63 75 47 q 86 96 85 79 l 86 856 q 59 911 82 888 q 3 940 36 935 l 3 943 l 32 943 l 86 943 l 188 943 l 646 943 l 646 790 l 629 814 q 542 890 594 863 q 429 917 489 917 l 190 917 l 190 582 l 479 582 l 546 639 l 546 500 l 479 557 l 190 557 l 190 26 l 492 25 q 635 71 569 25 l 690 111 l 660 0 z "},"F":{"ha":674,"x_min":3,"x_max":644,"o":"m 644 943 l 644 790 l 628 814 q 541 890 593 863 q 429 917 489 917 l 190 917 l 190 582 l 479 582 l 546 639 l 546 500 l 479 557 l 190 557 l 190 138 l 190 96 q 213 35 190 61 l 217 29 q 272 1 240 6 l 272 0 l 3 0 l 3 1 q 57 29 36 6 l 63 35 q 85 96 85 61 l 85 856 q 58 911 82 888 q 3 940 35 935 l 3 943 l 31 943 l 86 943 l 188 943 l 644 943 z "},"G":{"ha":972,"x_min":33,"x_max":988,"o":"m 835 -8 q 833 64 833 24 q 833 147 833 99 q 832 253 832 194 l 831 254 q 793 163 818 208 q 728 80 768 117 q 630 19 688 43 q 492 -4 572 -4 q 290 38 376 -4 q 147 147 204 79 q 61 301 89 214 q 34 478 33 388 q 65 655 35 568 q 152 809 94 742 q 296 918 210 876 q 497 960 382 960 q 674 950 594 960 q 810 929 753 940 q 926 899 876 915 l 826 782 q 774 864 811 828 q 681 920 742 894 q 519 946 619 946 q 369 907 435 946 q 258 803 303 868 q 189 657 213 739 q 164 490 165 575 q 185 322 163 404 q 254 176 207 240 q 374 72 301 111 q 546 33 446 33 q 688 75 632 33 q 775 176 743 117 q 819 299 807 236 q 831 407 831 363 l 825 560 q 665 558 742 558 q 531 557 599 557 q 418 557 463 557 l 418 590 l 936 590 l 936 485 l 936 206 l 936 114 q 952 83 936 94 q 988 79 968 72 l 835 -8 z "},"H":{"ha":878,"x_min":3,"x_max":875,"o":"m 792 138 l 792 96 q 814 35 793 61 l 819 29 q 875 1 843 6 l 875 0 l 606 0 l 606 1 q 660 29 636 6 l 665 35 q 688 97 688 61 l 688 458 l 190 458 l 190 96 q 213 35 190 61 l 219 28 q 272 1 242 6 l 272 0 l 3 0 l 3 1 q 58 29 38 6 l 64 35 q 80 63 74 47 q 86 97 86 79 l 86 115 l 86 138 l 86 806 l 86 828 l 86 846 q 80 880 86 864 q 63 908 74 896 l 60 913 q 34 931 49 924 q 3 940 19 939 l 3 943 l 32 943 l 244 943 l 272 943 l 272 940 q 218 914 240 938 l 213 908 q 190 847 190 882 l 190 485 l 688 485 l 688 846 q 665 908 688 882 l 660 914 q 635 932 649 925 q 606 940 621 939 l 606 943 l 633 943 l 846 943 l 875 943 l 875 940 q 844 932 858 939 q 819 914 831 925 l 814 908 q 792 847 793 882 l 792 806 l 792 138 z "},"I":{"ha":275,"x_min":3,"x_max":272,"o":"m 190 138 l 190 96 q 213 35 190 61 l 218 28 q 272 1 240 6 l 272 0 l 3 0 l 3 1 q 58 29 35 6 l 63 35 q 85 97 85 61 l 85 115 l 85 138 l 85 806 l 85 828 l 85 846 q 63 908 85 882 l 58 913 q 33 931 47 924 q 3 940 19 939 l 3 943 l 31 943 l 244 943 l 272 943 l 272 940 q 218 914 240 938 l 213 908 q 190 847 190 882 l 190 806 l 190 138 z "},"J":{"ha":261,"x_min":-333,"x_max":258,"o":"m 258 940 q 228 932 242 939 q 203 914 214 925 l 199 908 q 175 847 176 882 l 175 806 l 175 117 q 146 -42 175 24 q 71 -152 117 -108 q -32 -220 25 -196 q -146 -255 -89 -244 q -253 -265 -203 -265 q -333 -258 -303 -264 l -296 -144 q -150 -222 -217 -215 q -34 -185 -83 -228 q 43 -58 15 -142 q 71 132 71 25 l 71 846 q 49 908 71 882 l 43 914 q 18 932 32 925 q -11 940 4 939 l -11 943 l 17 943 l 229 943 l 258 943 l 258 940 l 258 940 z "},"K":{"ha":869,"x_min":3,"x_max":867,"o":"m 233 514 q 210 478 221 494 q 190 449 199 463 l 190 138 l 190 96 q 213 35 190 61 l 218 29 q 272 1 240 6 l 272 0 l 3 0 l 3 1 q 57 29 36 6 l 63 35 q 85 96 85 61 l 85 856 q 58 911 82 888 q 3 940 35 935 l 3 943 l 31 943 l 86 943 l 188 943 l 244 943 l 190 883 l 190 488 q 253 574 217 525 q 333 674 290 622 q 421 775 375 725 q 512 864 467 825 q 599 927 557 903 q 678 951 642 951 l 724 872 q 619 858 667 872 q 528 820 571 844 q 449 764 486 796 q 378 696 413 732 l 308 613 q 304 608 306 610 q 300 603 303 606 l 664 179 q 725 109 699 138 q 774 60 751 81 q 819 26 797 40 q 867 0 840 13 l 668 0 l 233 514 l 233 514 z "},"L":{"ha":636,"x_min":3,"x_max":610,"o":"m 571 0 l 146 0 l 4 0 l 4 1 q 57 28 35 6 l 64 36 q 86 96 83 58 l 86 806 l 86 828 l 86 846 q 80 880 86 864 q 63 908 74 896 l 60 913 q 34 931 49 924 q 3 940 19 939 l 3 943 l 32 943 l 244 943 l 272 943 l 272 940 q 218 914 243 939 l 213 908 q 190 847 190 882 l 190 26 l 192 25 l 342 25 q 476 45 411 25 q 599 104 540 65 l 610 111 l 571 0 z "},"M":{"ha":1204,"x_min":3,"x_max":1201,"o":"m 1201 0 l 1174 0 l 1135 0 l 932 0 l 932 1 q 988 29 967 6 l 993 35 q 1015 96 1014 61 l 1015 138 l 1015 813 l 639 61 l 672 0 l 571 0 l 124 789 l 124 150 q 147 61 124 101 q 215 1 169 21 l 215 0 l 115 0 l 103 0 l 3 0 l 3 1 q 73 61 49 21 q 99 150 97 101 l 99 149 l 99 833 l 36 943 l 156 943 l 625 86 l 1054 943 l 1174 943 l 1201 943 l 1201 940 q 1149 915 1172 939 l 1142 907 q 1119 849 1122 883 l 1119 96 q 1142 35 1119 61 l 1147 29 q 1201 1 1171 6 l 1201 0 z "},"N":{"ha":853,"x_min":3,"x_max":850,"o":"m 850 943 l 850 940 q 781 882 806 922 q 756 793 756 842 l 756 -31 l 742 -31 l 124 822 l 124 150 q 147 61 124 101 q 214 1 169 21 l 214 0 l 114 0 l 103 0 l 3 0 l 3 1 q 72 60 47 21 q 97 149 97 100 l 97 857 l 36 943 l 156 943 l 729 153 l 729 792 q 706 881 729 840 q 639 940 683 922 l 639 943 l 739 943 l 750 943 l 850 943 z "},"O":{"ha":1033,"x_min":28,"x_max":992,"o":"m 510 951 q 697 913 610 951 q 851 810 785 875 q 954 657 917 744 q 992 469 992 569 q 954 281 992 369 q 851 128 917 193 q 697 24 785 63 q 510 -14 610 -14 q 322 24 410 -14 q 169 128 235 63 q 65 281 103 193 q 28 469 28 369 q 65 657 28 569 q 169 810 103 744 q 322 913 235 875 q 510 951 410 951 m 510 0 q 653 37 586 0 q 771 138 721 74 q 850 287 821 201 q 879 469 879 372 q 850 651 879 567 q 771 800 821 736 q 653 901 721 864 q 510 938 586 938 q 366 901 433 938 q 249 800 299 864 q 169 651 199 736 q 140 469 140 567 q 169 287 140 372 q 249 138 199 201 q 366 37 299 74 q 510 0 433 0 z "},"P":{"ha":694,"x_min":3,"x_max":669,"o":"m 669 738 q 634 613 669 661 q 545 532 599 564 q 430 478 492 500 q 315 435 368 457 q 226 383 261 413 q 190 307 190 354 l 190 138 l 190 96 q 213 33 190 60 l 217 31 q 272 1 239 6 l 272 0 l 3 0 l 3 1 q 56 28 33 6 l 64 36 q 85 94 85 61 l 85 857 q 59 912 82 889 q 3 940 36 935 l 3 943 l 31 943 l 86 943 l 188 943 l 400 943 q 495 930 447 943 q 582 891 543 917 q 645 826 621 865 q 669 738 669 788 m 190 925 l 190 363 q 244 419 208 396 q 324 462 281 442 q 411 503 367 482 q 492 556 456 525 q 553 631 529 586 q 576 742 576 675 q 561 819 576 785 q 519 876 546 853 q 454 913 492 900 q 374 925 417 925 l 190 925 z "},"Q":{"ha":1025,"x_min":28,"x_max":1025,"o":"m 1025 -192 q 928 -293 978 -262 q 825 -327 878 -324 q 717 -312 772 -331 q 603 -267 661 -294 q 486 -208 546 -239 q 365 -153 426 -176 q 240 -119 303 -129 q 113 -126 176 -110 l 107 -97 q 236 -82 158 -93 q 400 -47 314 -71 q 572 16 486 -24 q 725 117 657 56 q 836 265 793 179 q 879 469 879 351 q 850 651 879 567 q 771 800 821 736 q 653 901 721 864 q 510 938 586 938 q 366 901 433 938 q 249 800 299 864 q 169 651 199 736 q 140 469 140 567 q 165 299 140 374 q 231 172 190 224 q 324 94 271 121 q 433 67 376 67 q 574 104 517 67 q 662 198 631 142 q 699 320 693 254 q 686 442 704 386 q 626 536 668 499 q 521 574 585 574 l 532 590 q 658 549 606 590 q 738 447 711 508 q 763 315 764 386 q 725 183 761 244 q 617 81 689 122 q 433 40 546 40 q 297 64 368 40 q 165 139 225 88 q 67 272 106 190 q 28 469 28 353 q 65 657 28 569 q 169 810 103 744 q 322 913 235 875 q 510 951 410 951 q 697 913 610 951 q 851 810 785 875 q 954 657 917 744 q 992 469 992 569 q 969 322 992 392 q 905 193 946 251 q 808 90 864 135 q 683 19 751 46 q 540 -31 618 -7 q 384 -71 474 -50 q 193 -104 294 -92 q 333 -109 257 -93 q 490 -151 410 -125 q 649 -203 569 -176 q 797 -240 728 -229 q 922 -239 867 -251 q 1011 -174 978 -226 l 1025 -192 z "},"R":{"ha":792,"x_min":3,"x_max":781,"o":"m 442 463 q 512 417 482 447 q 567 347 542 386 q 615 263 592 308 q 662 172 638 218 q 715 82 686 126 q 781 0 743 38 l 638 0 q 611 49 626 11 q 576 139 596 88 q 533 247 557 190 q 479 350 508 303 q 415 428 450 397 q 340 460 381 460 q 258 460 301 460 q 190 461 214 461 l 190 138 l 190 96 q 197 62 190 78 q 214 33 203 46 l 217 31 q 272 1 239 6 l 272 0 l 3 0 l 3 1 q 57 28 35 6 l 64 36 q 85 96 85 61 l 85 857 q 59 912 82 889 q 3 940 36 935 l 3 943 l 31 943 l 86 943 l 188 943 l 410 943 q 561 910 500 943 q 654 825 622 876 q 689 713 686 774 q 665 599 692 653 q 583 508 639 546 q 442 463 526 469 m 392 479 q 501 513 457 479 q 567 595 544 546 q 589 702 589 644 q 567 809 589 760 q 501 892 544 858 q 392 925 457 925 l 190 925 l 190 479 l 357 479 l 358 479 l 392 479 z "},"S":{"ha":761,"x_min":28,"x_max":733,"o":"m 147 719 q 172 632 147 667 q 239 573 197 597 q 333 531 281 549 q 440 497 385 514 q 548 460 496 479 q 642 410 600 440 q 708 338 683 381 q 733 235 733 296 q 715 143 733 188 q 656 64 697 99 q 546 8 614 29 q 378 -14 478 -14 q 213 -4 279 -14 q 106 17 147 6 q 28 47 57 31 l 46 149 q 111 74 67 107 q 213 23 149 46 q 378 0 278 0 q 501 22 451 0 q 581 77 551 44 q 624 147 611 110 q 638 213 638 183 q 594 315 638 276 q 486 380 551 353 q 346 429 421 407 q 206 485 271 451 q 97 571 140 519 q 54 707 54 622 q 74 797 54 753 q 133 874 93 840 q 235 930 174 908 q 383 951 297 951 q 519 942 463 951 q 611 921 575 932 q 681 890 653 907 l 663 789 q 603 863 640 829 q 517 914 571 890 q 383 938 463 938 q 267 915 313 938 q 195 858 222 892 q 158 786 168 824 q 147 719 147 749 z "},"T":{"ha":658,"x_min":3,"x_max":656,"o":"m 656 826 q 608 867 642 850 q 534 894 575 883 q 450 910 493 904 q 374 917 407 915 l 382 917 l 382 138 l 382 96 q 404 35 382 61 l 410 28 q 464 1 432 6 l 464 0 l 194 0 l 194 1 q 250 29 226 6 l 254 35 q 276 97 276 61 l 276 115 l 276 138 l 276 917 l 285 917 q 207 910 250 915 q 124 894 164 904 q 50 867 83 883 q 3 826 17 850 l 31 943 l 329 943 l 628 943 l 656 826 l 656 826 z "},"U":{"ha":864,"x_min":3,"x_max":861,"o":"m 861 943 l 861 940 q 792 882 817 922 q 767 793 767 842 l 767 299 l 765 297 q 736 158 765 217 q 659 60 707 99 q 550 4 611 22 q 425 -12 489 -14 q 300 10 361 -11 q 191 74 239 32 q 114 176 143 115 q 85 315 85 236 l 85 806 l 85 828 l 85 846 q 63 908 85 882 l 58 913 q 33 931 47 924 q 3 940 19 939 l 3 943 l 31 943 l 244 943 l 272 943 l 272 940 q 218 914 240 938 l 213 908 q 190 847 190 882 l 190 331 q 231 153 190 224 q 333 47 272 82 q 465 10 394 11 q 597 42 536 10 q 699 139 658 75 q 740 299 740 203 l 740 792 q 717 881 740 840 q 650 940 694 922 l 650 943 l 750 943 l 761 943 l 861 943 z "},"V":{"ha":886,"x_min":3,"x_max":883,"o":"m 883 943 l 883 942 q 877 938 883 942 q 863 929 871 933 q 847 922 854 925 q 839 917 840 918 q 801 879 818 900 q 772 831 782 856 q 750 778 761 806 q 713 683 731 729 q 675 589 694 636 q 628 470 651 529 q 581 351 604 411 q 541 251 561 301 q 501 150 521 200 q 497 138 499 143 q 492 126 494 132 l 517 58 l 435 0 l 132 828 q 131 834 131 832 q 129 839 131 836 l 121 860 q 74 918 106 896 q 3 940 42 940 l 3 942 l 306 942 l 306 940 q 244 908 265 940 q 233 839 222 876 l 479 160 q 497 205 489 183 q 515 250 506 226 q 560 363 538 307 q 604 476 582 419 q 649 589 628 533 q 693 700 671 644 l 726 783 q 747 836 738 808 q 750 892 757 864 q 736 921 746 910 q 731 926 735 922 q 722 933 726 931 l 711 942 l 711 944 l 883 943 z "},"W":{"ha":1344,"x_min":3,"x_max":1342,"o":"m 1342 943 l 1342 942 q 1335 938 1342 942 q 1321 929 1329 933 q 1305 922 1313 925 q 1296 917 1297 918 q 1258 879 1275 900 q 1228 831 1239 856 q 1207 778 1218 806 q 1169 683 1188 729 q 1132 589 1151 636 q 1085 470 1108 529 q 1039 351 1063 411 q 999 251 1019 301 q 958 150 979 200 q 954 138 956 143 q 950 126 953 132 l 974 58 l 892 0 l 676 590 l 675 589 q 628 470 651 529 q 582 351 606 411 l 501 150 l 493 126 l 517 58 l 435 0 l 133 828 q 129 839 132 833 l 121 860 q 74 918 106 896 q 3 940 43 940 l 3 942 l 307 942 l 307 940 q 272 931 288 940 q 245 908 256 922 q 231 876 235 894 q 233 839 228 857 l 481 160 q 498 205 489 183 q 515 250 507 226 q 560 363 539 307 q 606 476 582 419 q 635 551 621 514 q 664 625 649 588 l 590 828 q 586 839 589 833 l 578 860 q 531 918 563 896 q 460 940 500 940 l 460 942 l 764 942 l 764 940 q 728 931 744 940 q 702 908 713 922 q 688 876 692 894 q 690 839 685 857 l 938 160 q 955 205 946 183 q 972 250 964 226 q 1017 363 996 307 q 1063 476 1039 419 q 1106 589 1085 533 q 1151 700 1128 644 q 1167 742 1160 721 q 1183 783 1175 763 q 1205 836 1194 808 q 1208 892 1215 864 q 1194 921 1206 906 q 1189 926 1193 922 q 1181 933 1185 931 l 1169 942 l 1169 944 l 1342 943 z "},"X":{"ha":847,"x_min":3,"x_max":844,"o":"m 843 942 q 707 843 768 913 l 458 507 l 635 242 l 729 97 q 829 -6 772 36 l 797 -6 l 676 -6 l 575 -6 l 574 -4 q 620 25 608 -4 q 613 90 632 54 l 394 421 l 160 104 q 138 42 138 72 q 158 -4 138 11 l 157 -6 l 79 -6 l 65 -6 l 3 -6 l 4 -4 q 74 40 42 11 q 135 103 106 68 l 382 438 l 213 697 l 185 739 l 117 842 q 72 898 97 872 q 18 943 46 924 l 169 943 l 272 943 l 272 942 q 242 933 254 942 q 226 910 231 924 q 224 878 221 896 q 238 842 226 860 l 325 710 l 333 697 l 446 522 l 681 839 q 706 899 703 871 q 689 942 710 926 l 689 944 l 844 943 l 843 942 l 843 942 z "},"Y":{"ha":822,"x_min":3,"x_max":819,"o":"m 819 943 l 819 942 q 740 896 775 925 q 707 863 724 881 q 679 826 690 846 q 656 786 668 807 q 631 746 643 765 q 597 690 614 718 q 564 635 581 663 q 534 585 549 610 q 504 535 519 560 q 491 513 497 524 q 478 492 485 503 l 478 94 q 502 31 479 58 q 561 1 525 4 l 561 0 l 292 0 l 292 1 q 350 32 326 4 q 374 97 374 60 l 374 114 l 374 136 l 374 492 q 357 518 365 506 q 342 542 349 531 q 308 593 325 568 q 276 643 292 618 q 241 699 258 671 q 206 754 224 726 q 176 799 190 778 q 147 844 163 821 q 120 884 135 867 q 85 917 106 901 q 65 927 75 922 q 44 935 56 932 q 37 936 43 935 q 23 939 31 938 q 9 941 15 940 q 3 942 3 942 l 3 943 l 326 943 l 328 942 q 290 933 307 942 q 261 909 272 924 q 248 876 250 894 q 256 840 246 858 l 465 513 l 661 840 q 674 898 678 869 q 644 942 669 926 l 646 943 l 819 943 z "},"Z":{"ha":739,"x_min":32,"x_max":715,"o":"m 421 25 q 506 32 463 25 q 588 54 549 39 q 660 92 628 69 q 715 147 693 115 l 682 0 l 32 0 l 540 917 l 329 917 q 256 910 293 917 q 185 888 218 903 q 125 849 151 872 q 85 790 99 825 l 85 943 l 660 943 l 151 25 l 421 25 l 421 25 z "},"a":{"ha":739,"x_min":14,"x_max":711,"o":"m 553 -1 l 553 113 l 553 194 l 553 228 l 553 232 l 554 350 l 554 346 q 471 172 514 242 q 388 61 428 103 q 311 3 347 19 q 247 -14 275 -14 q 123 17 174 -14 q 45 92 72 47 q 16 188 18 136 q 36 283 14 240 q 101 366 64 336 q 183 411 139 396 q 276 431 228 426 q 372 441 324 436 q 467 455 421 446 q 556 488 514 464 q 536 596 556 549 q 475 657 517 643 q 386 666 433 671 q 293 647 339 661 q 205 614 247 633 q 131 578 163 594 l 14 661 q 126 695 57 678 q 288 715 196 713 q 356 713 322 718 q 421 696 389 707 q 535 638 482 674 q 583 597 563 619 q 619 549 604 575 q 646 492 635 521 q 657 435 657 464 l 657 228 l 657 138 q 659 107 657 118 q 667 88 661 96 q 684 72 674 79 q 711 54 694 64 l 553 -1 m 554 464 q 449 435 499 440 q 352 427 399 431 q 260 413 306 424 q 169 368 215 403 q 132 320 146 350 q 114 256 118 290 q 114 188 110 222 q 132 125 118 153 q 168 81 146 97 q 221 65 190 64 q 346 103 293 69 q 435 178 399 136 q 492 259 471 219 q 521 315 513 299 q 554 433 554 382 l 554 464 z "},"b":{"ha":713,"x_min":-28,"x_max":669,"o":"m 328 707 q 518 653 442 707 q 632 520 594 600 q 669 347 669 440 q 631 173 669 253 q 515 40 592 93 q 325 -14 439 -14 q 258 -6 286 -14 q 207 18 229 3 q 115 39 164 44 q 35 -4 67 33 l 26 -14 l 26 811 q -28 950 26 892 l 131 1000 l 131 626 q 155 650 139 636 q 195 676 171 664 q 252 698 219 689 q 328 707 285 707 m 329 -1 q 431 28 388 -1 q 503 108 474 58 q 546 219 532 157 q 560 346 560 281 q 544 474 560 411 q 500 585 529 536 q 427 663 471 633 q 325 692 383 692 q 229 676 267 690 q 169 643 192 661 q 131 596 144 622 l 131 178 q 147 100 131 133 q 192 44 164 67 q 256 10 219 21 q 329 -1 292 -1 z "},"c":{"ha":722,"x_min":28,"x_max":694,"o":"m 694 136 q 618 61 664 94 q 522 10 579 33 q 388 -12 465 -12 q 247 16 313 -12 q 133 93 182 44 q 56 207 85 142 q 28 347 28 272 q 56 488 28 422 q 133 601 85 553 q 247 678 182 650 q 388 707 313 707 q 510 699 460 707 q 590 683 560 692 q 647 661 626 674 l 631 568 q 575 629 610 603 q 500 672 546 653 q 388 690 454 690 q 244 642 303 690 q 158 520 186 593 q 131 363 129 447 q 168 205 133 278 q 272 83 203 132 q 444 35 340 35 q 549 52 504 35 q 624 90 593 69 q 685 146 660 115 l 694 136 z "},"d":{"ha":714,"x_min":28,"x_max":672,"o":"m 672 1000 l 672 -14 l 663 -4 q 582 39 631 33 q 492 18 533 44 q 440 -6 469 3 q 372 -14 411 -14 q 182 40 258 -14 q 67 173 106 93 q 28 347 29 253 q 65 520 28 440 q 178 653 103 600 q 369 707 254 707 q 446 698 413 707 q 503 676 479 689 q 542 650 526 664 q 567 626 558 636 l 567 811 q 513 950 567 892 l 672 1000 m 567 596 q 528 643 553 622 q 468 676 506 661 q 372 692 431 690 q 270 663 314 692 q 197 585 226 633 q 153 474 168 536 q 138 346 139 411 q 152 219 138 281 q 195 108 167 157 q 267 28 224 58 q 369 -1 311 -1 q 442 10 407 -1 q 506 44 478 21 q 550 99 533 67 q 567 176 567 132 l 567 596 z "},"e":{"ha":739,"x_min":28,"x_max":711,"o":"m 444 35 q 547 52 503 35 q 622 90 592 69 q 683 146 658 115 l 694 136 q 618 61 664 94 q 522 10 579 33 q 386 -12 465 -12 q 246 16 311 -12 q 132 93 181 44 q 56 207 83 142 q 28 347 28 272 q 56 488 28 422 q 132 601 83 553 q 246 678 181 650 q 386 707 311 707 q 490 691 444 707 q 569 647 536 675 q 572 644 572 644 q 611 606 594 626 q 654 533 642 568 q 672 474 667 499 q 684 436 678 449 q 711 429 690 424 l 711 414 l 567 372 l 147 244 q 173 188 158 215 q 208 138 188 161 l 236 110 q 326 55 275 75 q 444 35 378 35 m 386 690 q 248 650 304 690 q 160 547 192 610 q 124 407 129 483 q 142 260 119 331 l 574 390 q 574 480 579 428 q 548 578 569 532 q 487 658 526 625 q 386 690 447 690 z "},"f":{"ha":478,"x_min":3,"x_max":489,"o":"m 265 950 q 359 947 318 950 q 429 939 400 943 q 489 929 464 933 l 460 849 q 417 889 443 871 q 358 917 393 904 q 274 929 322 929 q 213 898 238 929 q 189 794 189 867 l 189 697 l 417 697 l 417 672 l 189 672 l 189 136 l 189 94 q 213 31 190 58 q 272 0 236 4 l 272 -1 l 3 -1 l 3 0 q 61 31 38 4 q 85 96 85 58 l 85 114 l 85 136 l 85 672 l 8 672 l 8 697 l 85 697 l 85 742 q 99 832 85 793 q 138 897 114 871 q 195 937 163 924 q 265 950 228 950 z "},"g":{"ha":703,"x_min":-236,"x_max":731,"o":"m 132 86 q 221 88 164 86 q 344 84 278 89 q 479 65 411 79 q 603 22 547 51 q 695 -58 660 -8 q 731 -182 731 -107 q 703 -306 731 -253 q 626 -397 675 -360 q 509 -451 576 -433 q 361 -469 442 -469 q 215 -442 279 -469 q 100 -372 151 -414 q 6 -278 49 -329 q -75 -179 -36 -226 q -153 -94 -114 -132 q -236 -43 -192 -57 l -87 -43 q -25 -96 -53 -60 q 31 -176 3 -132 q 88 -268 58 -221 q 156 -354 118 -315 q 244 -418 194 -393 q 361 -443 294 -443 q 480 -424 429 -443 q 565 -372 531 -406 q 616 -293 599 -339 q 633 -193 633 -247 q 603 -75 633 -122 q 524 1 572 -28 q 417 45 476 31 q 301 65 358 60 q 196 68 244 69 q 121 64 147 67 l 104 72 l 167 196 q 69 294 106 235 q 33 425 33 354 q 58 535 33 483 q 124 624 82 586 q 223 685 167 663 q 344 707 279 707 q 372 706 358 707 q 397 701 385 704 q 458 774 428 746 q 519 810 489 803 q 562 816 543 815 q 594 815 581 817 q 621 810 610 814 l 621 753 q 592 769 607 763 q 560 782 578 776 q 522 788 543 788 q 468 764 496 788 q 413 700 440 740 q 510 664 465 689 q 587 603 554 639 q 638 521 619 567 q 657 425 657 475 q 633 316 657 367 q 565 227 608 265 q 465 167 522 189 q 344 144 408 144 q 259 156 300 144 q 182 188 218 168 l 132 86 m 399 679 q 343 581 371 635 q 290 468 315 526 q 242 352 265 410 q 201 244 219 294 q 266 183 229 206 q 344 161 303 161 q 422 182 386 161 q 484 238 457 203 q 526 322 511 274 q 542 425 542 371 q 531 512 542 471 q 501 586 521 553 q 456 643 482 619 q 399 679 429 667 m 147 425 q 159 338 147 379 q 190 264 171 297 q 231 369 208 314 q 278 481 253 425 q 330 588 303 536 q 386 685 357 640 q 365 689 375 688 q 344 690 356 690 q 268 669 304 690 q 205 613 232 649 q 163 528 178 576 q 147 425 147 481 z "},"h":{"ha":722,"x_min":3,"x_max":719,"o":"m 719 -1 l 690 -1 l 478 -1 l 450 -1 l 450 0 q 504 28 481 4 l 510 33 q 532 94 532 60 l 532 350 q 528 476 531 414 q 511 585 525 538 q 469 663 497 633 q 389 692 440 692 q 297 660 335 692 q 235 582 260 628 q 201 488 211 536 q 190 406 190 439 l 190 136 l 190 94 q 213 33 190 60 l 217 28 q 272 0 240 4 l 272 -1 l 244 -1 l 31 -1 l 3 -1 l 3 0 q 58 28 35 4 l 64 33 q 85 94 85 61 l 85 811 q 31 950 85 892 l 190 1000 l 190 536 q 217 592 200 563 q 258 648 233 622 q 316 690 282 674 q 396 707 350 707 q 522 681 475 707 q 593 610 568 654 q 626 508 618 565 q 636 389 635 451 l 636 136 l 636 94 q 660 32 639 58 l 663 29 q 719 0 685 4 l 719 -1 z "},"i":{"ha":275,"x_min":3,"x_max":272,"o":"m 128 790 l 64 883 q 81 933 64 913 q 128 954 99 954 q 174 933 157 954 q 192 883 192 913 l 128 790 m 272 -1 l 244 -1 l 31 -1 l 3 -1 l 3 0 q 58 29 36 4 l 63 33 q 85 96 85 60 l 85 114 l 85 136 l 85 515 q 31 654 85 596 l 190 697 l 190 136 l 190 94 q 213 33 190 60 l 218 28 q 272 0 239 4 l 272 -1 z "},"j":{"ha":217,"x_min":-408,"x_max":172,"o":"m 108 790 l 44 883 q 62 933 44 913 q 108 954 79 954 q 155 933 138 954 q 172 883 172 913 l 108 790 m 65 515 q 11 654 65 596 l 171 697 l 171 92 q 138 -86 171 -15 q 54 -201 106 -157 q -62 -268 3 -246 q -190 -299 -126 -290 q -312 -307 -254 -307 q -408 -307 -371 -307 l -369 -218 q -296 -242 -333 -232 q -224 -257 -264 -250 q -143 -264 -183 -264 q -23 -234 -65 -264 q 39 -153 19 -204 q 62 -35 58 -103 q 65 108 65 32 l 65 515 z "},"k":{"ha":725,"x_min":3,"x_max":708,"o":"m 233 350 q 211 321 222 335 q 190 293 200 307 l 190 94 q 213 33 190 60 l 218 28 q 272 0 239 4 l 272 -1 l 244 -1 l 31 -1 l 3 -1 l 3 0 q 58 29 36 4 l 63 33 q 85 96 85 60 l 85 114 l 85 136 l 85 811 q 31 950 85 892 l 190 1000 l 190 328 q 288 451 233 385 q 399 574 342 517 q 514 669 457 631 q 617 707 571 707 l 617 622 q 492 588 554 622 q 371 500 429 553 l 304 435 q 296 425 301 431 l 515 176 q 574 108 550 136 q 619 60 599 81 q 660 26 640 40 q 708 -1 681 11 l 542 -1 l 233 350 l 233 350 z "},"l":{"ha":275,"x_min":3,"x_max":272,"o":"m 272 -1 l 244 -1 l 31 -1 l 3 -1 l 3 0 q 58 29 36 4 l 63 33 q 85 96 85 60 l 85 114 l 85 136 l 85 811 q 31 950 85 892 l 190 1000 l 190 136 l 190 94 q 213 33 190 60 l 218 28 q 272 0 239 4 l 272 -1 z "},"m":{"ha":1167,"x_min":3,"x_max":1164,"o":"m 1164 -1 l 1136 -1 l 922 -1 l 894 -1 l 894 0 q 950 28 926 4 l 954 33 q 976 94 976 60 l 976 350 q 973 476 976 414 q 956 585 969 538 q 913 663 942 633 q 833 692 885 692 q 742 660 779 692 q 680 582 704 628 q 645 488 656 536 q 635 406 635 439 l 635 407 q 635 397 635 401 q 636 389 636 393 l 636 92 q 657 35 639 57 l 667 25 q 718 0 688 4 l 718 -1 l 690 -1 l 476 -1 l 449 -1 l 449 0 q 507 31 483 4 q 531 96 531 58 l 531 114 l 531 136 l 531 350 q 527 476 531 414 q 510 585 524 538 q 468 663 497 633 q 388 692 439 692 q 296 660 333 692 q 235 582 258 628 q 201 488 211 536 q 190 406 190 439 l 190 94 q 213 33 190 60 l 218 28 q 272 0 240 4 l 272 -1 l 244 -1 l 31 -1 l 3 -1 l 3 0 q 58 29 36 4 l 63 33 q 85 96 85 60 l 85 114 l 85 136 l 85 515 q 31 654 85 596 l 190 697 l 190 536 q 217 592 200 563 q 258 648 233 622 q 316 690 282 674 q 396 707 350 707 q 495 692 454 707 q 563 650 536 676 q 604 587 589 624 q 626 508 619 550 q 650 568 635 533 q 690 633 665 603 q 753 685 715 664 q 842 707 790 707 q 967 681 919 707 q 1039 610 1014 654 q 1072 508 1064 565 q 1082 389 1081 451 l 1082 136 l 1082 94 q 1104 33 1082 60 l 1108 28 q 1164 0 1132 4 l 1164 -1 z "},"n":{"ha":722,"x_min":3,"x_max":719,"o":"m 719 -1 l 690 -1 l 478 -1 l 450 -1 l 450 0 q 504 28 483 4 l 510 33 q 532 96 532 60 l 532 350 q 528 476 531 414 q 511 585 525 538 q 469 663 497 633 q 389 692 440 692 q 297 660 335 692 q 235 582 260 628 q 201 488 211 536 q 190 406 190 439 l 190 136 l 190 94 q 213 33 190 60 l 218 28 q 272 0 239 4 l 272 -1 l 244 -1 l 31 -1 l 32 -1 l 3 -1 l 3 0 q 58 28 38 4 l 63 33 q 85 96 85 60 l 85 515 q 72 590 85 554 q 31 654 58 626 l 190 697 l 190 536 q 217 592 200 563 q 258 648 233 622 q 316 690 282 674 q 396 707 350 707 q 522 681 475 707 q 593 610 568 654 q 626 508 618 565 q 636 389 635 451 l 636 136 l 636 94 q 660 33 638 60 l 664 28 q 719 0 685 4 l 719 -1 z "},"o":{"ha":789,"x_min":28,"x_max":747,"o":"m 388 707 q 528 678 463 707 q 642 601 593 650 q 719 488 690 553 q 747 347 747 422 q 719 206 747 272 q 642 92 690 140 q 528 15 593 43 q 388 -14 463 -14 q 247 15 313 -14 q 133 92 182 43 q 56 206 85 140 q 28 347 28 272 q 56 488 28 422 q 133 601 85 553 q 247 678 182 650 q 388 707 313 707 m 388 0 q 487 27 440 0 q 568 101 533 54 q 623 212 603 149 q 643 347 643 275 q 623 481 643 418 q 568 592 603 544 q 487 666 533 639 q 388 693 440 693 q 288 666 335 693 q 207 592 242 639 q 152 481 172 544 q 132 347 132 418 q 152 212 132 275 q 207 101 172 149 q 288 27 242 54 q 388 0 335 0 z "},"p":{"ha":726,"x_min":-28,"x_max":697,"o":"m 353 707 q 543 653 467 707 q 658 520 619 600 q 697 347 697 440 q 660 173 697 253 q 546 40 622 93 q 356 -14 469 -14 q 280 -5 313 -14 q 223 17 247 4 q 183 43 199 29 q 160 67 168 57 l 160 -200 l 160 -240 q 182 -301 160 -275 l 186 -308 q 211 -326 197 -319 q 242 -335 225 -333 l 242 -336 l 214 -336 l 0 -336 l -28 -336 l -28 -335 q 28 -307 4 -331 l 32 -303 q 54 -240 54 -274 l 54 -222 l 54 -200 l 54 707 l 63 697 q 143 654 94 660 q 235 676 192 649 q 285 699 257 690 q 353 707 314 707 m 353 1 q 455 31 411 1 q 528 108 499 60 q 573 219 558 157 q 588 347 588 282 q 574 474 589 413 q 531 585 560 536 q 459 665 503 635 q 357 694 415 694 q 284 683 319 694 q 221 649 249 672 q 176 593 193 626 q 160 517 160 560 l 160 97 q 199 50 174 71 q 258 17 221 32 q 353 1 294 1 z "},"q":{"ha":726,"x_min":29,"x_max":754,"o":"m 754 -336 l 726 -336 l 513 -336 l 485 -336 l 485 -335 q 540 -307 517 -331 l 544 -301 q 567 -240 567 -275 l 567 67 q 543 43 558 57 q 503 17 528 29 q 447 -5 479 4 q 371 -14 414 -14 q 181 40 257 -14 q 67 173 104 93 q 29 347 29 253 q 68 520 29 440 q 183 653 107 600 q 374 707 260 707 q 440 699 411 707 q 492 676 469 690 q 583 654 535 649 q 664 697 632 660 l 672 707 l 672 -200 l 672 -240 q 694 -303 672 -276 l 699 -307 q 724 -326 710 -318 q 754 -335 739 -333 l 754 -336 m 374 1 q 469 17 432 1 q 528 50 506 32 q 567 97 553 71 l 567 517 q 550 593 567 560 q 506 649 533 626 q 442 683 478 672 q 369 694 407 694 q 267 665 311 694 q 195 585 224 635 q 152 474 167 536 q 138 347 138 413 q 153 219 139 282 q 198 108 168 157 q 272 31 228 60 q 374 1 315 1 z "},"r":{"ha":594,"x_min":3,"x_max":569,"o":"m 374 707 q 461 699 424 707 q 522 683 499 692 q 569 661 550 674 l 553 568 q 508 629 535 603 q 449 672 485 653 q 365 690 414 690 q 287 666 319 690 q 233 601 254 642 q 201 510 211 561 q 190 406 190 460 l 190 94 q 213 33 190 60 l 218 28 q 272 0 239 4 l 272 -1 l 244 -1 l 31 -1 l 3 -1 l 3 0 q 58 29 36 4 l 63 33 q 85 96 85 60 l 85 114 l 85 136 l 85 515 q 31 654 85 596 l 190 697 l 190 554 q 213 606 199 579 q 249 656 228 633 q 301 692 271 678 q 374 707 332 707 z "},"s":{"ha":608,"x_min":28,"x_max":567,"o":"m 144 549 q 176 468 144 499 q 254 416 207 438 q 356 377 301 394 q 457 335 410 360 q 535 272 504 310 q 567 172 567 233 q 551 104 567 138 q 503 44 536 71 q 417 2 469 18 q 290 -14 365 -14 q 167 -5 215 -14 q 86 15 118 4 q 28 46 50 29 l 42 146 q 89 74 57 106 q 164 24 117 46 q 286 3 211 3 q 375 19 342 3 q 426 58 408 35 q 448 107 443 81 q 453 156 453 133 q 423 233 453 203 q 348 284 393 263 q 250 324 303 306 q 152 369 197 343 q 77 433 107 394 q 47 532 47 471 q 64 598 47 567 q 112 653 81 629 q 189 692 143 678 q 294 707 235 707 q 396 700 354 707 q 465 685 438 693 q 517 663 497 675 l 503 588 q 457 640 486 617 q 391 677 432 660 q 290 694 350 694 q 222 682 250 694 q 177 649 194 669 q 152 603 160 629 q 144 549 144 576 z "},"t":{"ha":390,"x_min":7,"x_max":363,"o":"m 363 71 q 322 29 346 47 q 274 1 303 14 q 207 -12 244 -12 q 117 28 147 -12 q 83 135 86 68 l 82 135 l 82 672 l 7 672 l 7 699 q 78 719 47 699 q 129 767 108 739 q 161 827 150 796 q 172 879 172 858 l 188 879 l 188 699 l 335 699 l 335 672 l 188 672 l 188 142 q 211 61 188 83 q 271 39 235 39 q 308 44 292 39 q 336 57 325 50 q 360 76 350 65 l 363 71 z "},"u":{"ha":688,"x_min":14,"x_max":674,"o":"m 515 -1 l 515 160 q 489 103 506 133 q 447 47 472 72 q 388 3 422 21 q 310 -14 354 -14 q 184 13 231 -14 q 113 85 138 40 q 79 188 88 131 q 69 308 71 246 l 68 308 l 68 515 q 55 590 68 554 q 14 654 42 626 l 174 699 l 174 347 q 177 220 174 282 q 194 110 181 158 q 237 31 208 61 q 317 1 265 1 q 408 34 371 1 q 470 113 446 67 q 505 209 494 160 q 515 292 515 258 l 515 515 q 461 654 515 596 l 619 699 l 619 58 l 674 -1 l 515 -1 z "},"v":{"ha":719,"x_min":14,"x_max":706,"o":"m 706 697 l 706 696 q 674 678 689 689 q 645 647 660 667 q 615 597 631 628 q 579 519 599 565 l 401 106 l 450 -1 l 344 -1 l 339 -1 l 61 604 l 14 697 l 276 697 l 276 696 q 227 684 250 693 q 192 656 204 675 q 181 607 179 638 q 203 531 182 576 l 304 308 l 376 156 l 389 129 l 563 531 q 583 606 582 576 q 573 653 583 635 q 544 680 563 671 q 506 696 525 689 l 506 697 l 706 697 z "},"w":{"ha":1064,"x_min":14,"x_max":1050,"o":"m 1050 697 l 1050 696 q 1019 678 1033 689 q 990 647 1004 667 q 960 597 975 628 q 925 519 944 565 l 746 106 l 796 -1 l 690 -1 l 683 -1 l 514 369 l 400 106 l 450 -1 l 344 -1 l 339 -1 l 61 604 l 14 697 l 275 697 l 275 696 q 226 684 249 693 q 190 656 203 675 q 179 607 178 638 q 201 531 181 576 l 303 308 l 376 156 l 388 129 l 503 394 l 407 604 l 360 697 l 621 697 l 621 696 q 572 684 594 693 q 536 656 549 675 q 525 607 524 638 q 547 531 526 576 l 649 308 l 721 156 l 733 129 l 907 531 q 927 606 926 576 q 917 653 928 635 q 888 680 907 671 q 851 696 869 689 l 851 697 l 1050 697 z "},"x":{"ha":758,"x_min":14,"x_max":744,"o":"m 572 699 l 744 699 l 743 696 q 653 642 694 679 q 576 563 611 606 l 514 486 l 419 371 l 508 247 l 510 247 l 615 104 q 725 1 658 44 l 690 1 l 569 1 l 456 3 l 456 4 q 506 33 493 4 q 499 97 518 63 l 354 294 l 303 231 l 199 104 q 167 46 172 72 q 186 4 163 19 l 186 1 l 14 1 l 15 4 q 109 53 64 21 q 190 128 154 85 l 253 204 l 340 311 l 131 596 l 132 596 l 131 596 q 21 699 88 656 l 290 699 l 290 696 q 258 687 271 696 q 239 663 244 678 q 237 630 233 649 q 254 593 240 611 l 274 565 l 357 453 l 406 388 l 464 460 l 568 588 q 594 649 593 618 q 572 696 596 681 l 572 699 z "},"y":{"ha":665,"x_min":18,"x_max":651,"o":"m 651 697 l 651 696 q 621 679 635 689 q 594 651 607 669 q 567 602 582 632 q 533 526 553 572 l 342 26 q 254 -154 300 -75 q 210 -220 233 -187 q 161 -278 188 -253 q 108 -318 135 -303 q 51 -333 81 -333 l 18 -226 q 147 -194 93 -226 q 235 -122 200 -162 q 300 -17 275 -76 l 47 633 l 19 697 l 138 697 l 265 697 l 265 696 q 217 684 239 693 q 182 656 194 675 q 171 607 169 638 q 192 531 172 576 l 351 121 l 513 544 q 527 613 528 586 q 516 656 526 639 q 488 681 506 672 q 451 696 469 689 l 451 697 l 651 697 z "},"z":{"ha":569,"x_min":14,"x_max":556,"o":"m 289 24 q 429 46 361 24 q 556 110 497 68 l 525 -1 l 14 -1 l 426 672 l 269 672 q 155 650 210 672 q 57 588 100 628 l 57 699 l 538 699 l 125 24 l 289 24 l 289 24 z "},"\u0000":{"ha":0,"x_min":0,"x_max":0,"o":""}}}
